<?xml version="1.0" encoding="UTF-8"?>
<svg xmlns="http://www.w3.org/2000/svg" xmlns:xlink="http://www.w3.org/1999/xlink" width="2100" height="2100" viewBox="0 0 2100 2100">
<defs>
<radialGradient id="radial-pattern-0" gradientUnits="userSpaceOnUse" cx="0" cy="0" fx="0" fy="0" r="1050">
<stop offset="0" stop-color="rgb(88.978577%, 98.822021%, 91.343689%)" stop-opacity="1"/>
<stop offset="0.25" stop-color="rgb(88.848877%, 98.822021%, 91.253662%)" stop-opacity="1"/>
<stop offset="0.273438" stop-color="rgb(88.659668%, 98.822021%, 91.119385%)" stop-opacity="1"/>
<stop offset="0.292969" stop-color="rgb(88.444519%, 98.822021%, 90.969849%)" stop-opacity="1"/>
<stop offset="0.3125" stop-color="rgb(88.198853%, 98.822021%, 90.797424%)" stop-opacity="1"/>
<stop offset="0.332031" stop-color="rgb(87.92572%, 98.822021%, 90.605164%)" stop-opacity="1"/>
<stop offset="0.351562" stop-color="rgb(87.626648%, 98.822021%, 90.396118%)" stop-opacity="1"/>
<stop offset="0.371094" stop-color="rgb(87.304688%, 98.822021%, 90.171814%)" stop-opacity="1"/>
<stop offset="0.390625" stop-color="rgb(86.997986%, 98.822021%, 89.956665%)" stop-opacity="1"/>
<stop offset="0.40625" stop-color="rgb(86.709595%, 98.822021%, 89.755249%)" stop-opacity="1"/>
<stop offset="0.421875" stop-color="rgb(86.410522%, 98.822021%, 89.546204%)" stop-opacity="1"/>
<stop offset="0.4375" stop-color="rgb(86.099243%, 98.822021%, 89.328003%)" stop-opacity="1"/>
<stop offset="0.453125" stop-color="rgb(85.775757%, 98.822021%, 89.100647%)" stop-opacity="1"/>
<stop offset="0.46875" stop-color="rgb(85.441589%, 98.822021%, 88.867188%)" stop-opacity="1"/>
<stop offset="0.484375" stop-color="rgb(85.096741%, 98.822021%, 88.626099%)" stop-opacity="1"/>
<stop offset="0.5" stop-color="rgb(84.742737%, 98.822021%, 88.37738%)" stop-opacity="1"/>
<stop offset="0.515625" stop-color="rgb(84.423828%, 98.822021%, 88.156128%)" stop-opacity="1"/>
<stop offset="0.527344" stop-color="rgb(84.146118%, 98.822021%, 87.960815%)" stop-opacity="1"/>
<stop offset="0.539062" stop-color="rgb(83.860779%, 98.822021%, 87.760925%)" stop-opacity="1"/>
<stop offset="0.550781" stop-color="rgb(83.570862%, 98.822021%, 87.559509%)" stop-opacity="1"/>
<stop offset="0.5625" stop-color="rgb(83.276367%, 98.822021%, 87.35199%)" stop-opacity="1"/>
<stop offset="0.574219" stop-color="rgb(82.977295%, 98.822021%, 87.141418%)" stop-opacity="1"/>
<stop offset="0.585938" stop-color="rgb(82.672119%, 98.822021%, 86.929321%)" stop-opacity="1"/>
<stop offset="0.597656" stop-color="rgb(82.362366%, 98.822021%, 86.712646%)" stop-opacity="1"/>
<stop offset="0.609375" stop-color="rgb(82.048035%, 98.822021%, 86.491394%)" stop-opacity="1"/>
<stop offset="0.621094" stop-color="rgb(81.729126%, 98.822021%, 86.268616%)" stop-opacity="1"/>
<stop offset="0.632812" stop-color="rgb(81.459045%, 98.822021%, 86.079407%)" stop-opacity="1"/>
<stop offset="0.640625" stop-color="rgb(81.240845%, 98.822021%, 85.926819%)" stop-opacity="1"/>
<stop offset="0.648438" stop-color="rgb(81.021118%, 98.822021%, 85.772705%)" stop-opacity="1"/>
<stop offset="0.65625" stop-color="rgb(80.799866%, 98.822021%, 85.618591%)" stop-opacity="1"/>
<stop offset="0.664062" stop-color="rgb(80.575562%, 98.822021%, 85.461426%)" stop-opacity="1"/>
<stop offset="0.671875" stop-color="rgb(80.348206%, 98.822021%, 85.302734%)" stop-opacity="1"/>
<stop offset="0.679688" stop-color="rgb(80.12085%, 98.822021%, 85.142517%)" stop-opacity="1"/>
<stop offset="0.6875" stop-color="rgb(79.890442%, 98.822021%, 84.9823%)" stop-opacity="1"/>
<stop offset="0.695312" stop-color="rgb(79.658508%, 98.822021%, 84.819031%)" stop-opacity="1"/>
<stop offset="0.703125" stop-color="rgb(79.425049%, 98.822021%, 84.655762%)" stop-opacity="1"/>
<stop offset="0.710938" stop-color="rgb(79.190063%, 98.822021%, 84.490967%)" stop-opacity="1"/>
<stop offset="0.71875" stop-color="rgb(78.952026%, 98.822021%, 84.324646%)" stop-opacity="1"/>
<stop offset="0.726562" stop-color="rgb(78.712463%, 98.822021%, 84.158325%)" stop-opacity="1"/>
<stop offset="0.734375" stop-color="rgb(78.471375%, 98.822021%, 83.988953%)" stop-opacity="1"/>
<stop offset="0.742188" stop-color="rgb(78.22876%, 98.822021%, 83.81958%)" stop-opacity="1"/>
<stop offset="0.75" stop-color="rgb(77.983093%, 98.822021%, 83.647156%)" stop-opacity="1"/>
<stop offset="0.757812" stop-color="rgb(77.674866%, 98.822021%, 83.430481%)" stop-opacity="1"/>
<stop offset="0.769531" stop-color="rgb(77.301025%, 98.822021%, 83.169556%)" stop-opacity="1"/>
<stop offset="0.78125" stop-color="rgb(76.922607%, 98.822021%, 82.905579%)" stop-opacity="1"/>
<stop offset="0.792969" stop-color="rgb(76.541138%, 98.822021%, 82.637024%)" stop-opacity="1"/>
<stop offset="0.804688" stop-color="rgb(76.15509%, 98.822021%, 82.366943%)" stop-opacity="1"/>
<stop offset="0.816406" stop-color="rgb(75.831604%, 98.822021%, 82.141113%)" stop-opacity="1"/>
<stop offset="0.824219" stop-color="rgb(75.570679%, 98.822021%, 81.958008%)" stop-opacity="1"/>
<stop offset="0.832031" stop-color="rgb(75.306702%, 98.822021%, 81.773376%)" stop-opacity="1"/>
<stop offset="0.839844" stop-color="rgb(75.042725%, 98.822021%, 81.588745%)" stop-opacity="1"/>
<stop offset="0.847656" stop-color="rgb(74.775696%, 98.822021%, 81.401062%)" stop-opacity="1"/>
<stop offset="0.855469" stop-color="rgb(74.507141%, 98.822021%, 81.213379%)" stop-opacity="1"/>
<stop offset="0.863281" stop-color="rgb(74.237061%, 98.822021%, 81.025696%)" stop-opacity="1"/>
<stop offset="0.871094" stop-color="rgb(73.96698%, 98.822021%, 80.834961%)" stop-opacity="1"/>
<stop offset="0.878906" stop-color="rgb(73.762512%, 98.822021%, 80.691528%)" stop-opacity="1"/>
<stop offset="0.882812" stop-color="rgb(73.625183%, 98.822021%, 80.595398%)" stop-opacity="1"/>
<stop offset="0.886719" stop-color="rgb(73.487854%, 98.822021%, 80.499268%)" stop-opacity="1"/>
<stop offset="0.890625" stop-color="rgb(73.350525%, 98.822021%, 80.403137%)" stop-opacity="1"/>
<stop offset="0.894531" stop-color="rgb(73.21167%, 98.822021%, 80.307007%)" stop-opacity="1"/>
<stop offset="0.898438" stop-color="rgb(73.072815%, 98.822021%, 80.209351%)" stop-opacity="1"/>
<stop offset="0.902344" stop-color="rgb(72.93396%, 98.822021%, 80.11322%)" stop-opacity="1"/>
<stop offset="0.90625" stop-color="rgb(72.795105%, 98.822021%, 80.015564%)" stop-opacity="1"/>
<stop offset="0.910156" stop-color="rgb(72.58606%, 98.822021%, 79.867554%)" stop-opacity="1"/>
<stop offset="0.917969" stop-color="rgb(72.303772%, 98.822021%, 79.670715%)" stop-opacity="1"/>
<stop offset="0.925781" stop-color="rgb(72.021484%, 98.822021%, 79.473877%)" stop-opacity="1"/>
<stop offset="0.933594" stop-color="rgb(71.737671%, 98.822021%, 79.275513%)" stop-opacity="1"/>
<stop offset="0.941406" stop-color="rgb(71.524048%, 98.822021%, 79.125977%)" stop-opacity="1"/>
<stop offset="0.945312" stop-color="rgb(71.380615%, 98.822021%, 79.025269%)" stop-opacity="1"/>
<stop offset="0.949219" stop-color="rgb(71.237183%, 98.822021%, 78.924561%)" stop-opacity="1"/>
<stop offset="0.953125" stop-color="rgb(71.09375%, 98.822021%, 78.823853%)" stop-opacity="1"/>
<stop offset="0.957031" stop-color="rgb(70.877075%, 98.822021%, 78.671265%)" stop-opacity="1"/>
<stop offset="0.964844" stop-color="rgb(70.585632%, 98.822021%, 78.468323%)" stop-opacity="1"/>
<stop offset="0.972656" stop-color="rgb(70.367432%, 98.822021%, 78.315735%)" stop-opacity="1"/>
<stop offset="0.976562" stop-color="rgb(70.222473%, 98.822021%, 78.213501%)" stop-opacity="1"/>
<stop offset="0.980469" stop-color="rgb(70.001221%, 98.822021%, 78.059387%)" stop-opacity="1"/>
<stop offset="0.988281" stop-color="rgb(69.779968%, 98.822021%, 77.905273%)" stop-opacity="1"/>
<stop offset="0.992188" stop-color="rgb(69.558716%, 98.822021%, 77.749634%)" stop-opacity="1"/>
<stop offset="1" stop-color="rgb(69.410706%, 98.822021%, 77.645874%)" stop-opacity="1"/>
</radialGradient>
</defs>
<rect x="-210" y="-210" width="2520" height="2520" fill="transparent"/>
<path fill-rule="evenodd" fill="rgb(27.830505%, 20.384216%, 13.719177%)" fill-opacity="1" d="M 956.984375 1422.058594 L 1003.488281 1422.058594 L 1003.488281 1375.558594 L 956.984375 1375.558594 Z M 1143.019531 1050 L 1096.511719 1050 L 1096.511719 1096.511719 L 1143.019531 1096.511719 L 1143.019531 1189.519531 L 1189.519531 1189.519531 L 1189.519531 1096.511719 L 1236.03125 1096.511719 L 1236.03125 1050 L 1189.519531 1050 L 1189.519531 1096.511719 L 1143.019531 1096.511719 Z M 1003.488281 1189.519531 L 1003.488281 1236.03125 L 1050 1236.03125 L 1050 1189.519531 Z M 1003.488281 1096.511719 L 1003.488281 1143.019531 L 1096.511719 1143.019531 L 1096.511719 1236.03125 L 1050 1236.03125 L 1050 1329.050781 L 1096.511719 1329.050781 L 1096.511719 1747.621094 L 1050 1747.621094 L 1050 1654.601562 L 1003.488281 1654.601562 L 1003.488281 1608.089844 L 1050 1608.089844 L 1050 1561.589844 L 1003.488281 1561.589844 L 1003.488281 1468.570312 L 956.984375 1468.570312 L 956.984375 1515.078125 L 910.476562 1515.078125 L 910.476562 1608.089844 L 863.96875 1608.089844 L 863.96875 1515.078125 L 910.476562 1515.078125 L 910.476562 1468.570312 L 956.984375 1468.570312 L 956.984375 1422.058594 L 910.476562 1422.058594 L 910.476562 1375.558594 L 956.984375 1375.558594 L 956.984375 1329.050781 L 1003.488281 1329.050781 L 1003.488281 1282.539062 L 956.984375 1282.539062 L 956.984375 1189.519531 L 1003.488281 1189.519531 L 1003.488281 1143.019531 L 956.984375 1143.019531 L 956.984375 1096.511719 Z M 817.460938 1840.628906 L 817.460938 1887.140625 L 770.953125 1887.140625 L 770.953125 1840.628906 Z M 1236.03125 1840.628906 L 1236.03125 1933.648438 L 1096.511719 1933.648438 L 1096.511719 1887.140625 L 1050 1887.140625 L 1050 1794.128906 L 1143.019531 1794.128906 L 1143.019531 1887.140625 L 1189.519531 1887.140625 L 1189.519531 1840.628906 L 1236.03125 1840.628906 "/>
<path fill-rule="evenodd" fill="rgb(54.492188%, 40.795898%, 29.026794%)" fill-opacity="1" d="M 956.984375 1282.539062 L 1003.488281 1282.539062 L 1003.488281 1329.050781 L 956.984375 1329.050781 L 956.984375 1375.558594 L 910.476562 1375.558594 L 910.476562 1329.050781 L 956.984375 1329.050781 Z M 1282.539062 1887.140625 L 1236.03125 1887.140625 L 1236.03125 1933.648438 L 1329.050781 1933.648438 L 1329.050781 1887.140625 Z M 1096.511719 1887.140625 L 1050 1887.140625 L 1050 1933.648438 L 1096.511719 1933.648438 Z M 1003.488281 1887.140625 L 1003.488281 1933.648438 L 956.984375 1933.648438 L 956.984375 1887.140625 Z M 910.476562 1794.128906 L 910.476562 1840.628906 L 863.96875 1840.628906 L 863.96875 1794.128906 Z M 817.460938 1794.128906 L 817.460938 1840.628906 L 770.953125 1840.628906 L 770.953125 1794.128906 Z M 1189.519531 1050 L 1189.519531 1096.511719 L 1143.019531 1096.511719 L 1143.019531 1050 Z M 1143.019531 1143.019531 L 1143.019531 1189.519531 L 1189.519531 1189.519531 L 1189.519531 1236.03125 L 1143.019531 1236.03125 L 1143.019531 1468.570312 L 1189.519531 1468.570312 L 1189.519531 1608.089844 L 1143.019531 1608.089844 L 1143.019531 1747.621094 L 1189.519531 1747.621094 L 1189.519531 1794.128906 L 1236.03125 1794.128906 L 1236.03125 1840.628906 L 1189.519531 1840.628906 L 1189.519531 1887.140625 L 1143.019531 1887.140625 L 1143.019531 1794.128906 L 1096.511719 1794.128906 L 1096.511719 1329.050781 L 1050 1329.050781 L 1050 1236.03125 L 1096.511719 1236.03125 L 1096.511719 1143.019531 L 1143.019531 1143.019531 "/>
<path fill-rule="evenodd" fill="rgb(7.446289%, 35.693359%, 19.993591%)" fill-opacity="1" d="M 910.476562 770.949219 L 956.984375 770.949219 L 956.984375 724.441406 L 1003.488281 724.441406 L 1003.488281 677.941406 L 1096.511719 677.941406 L 1096.511719 724.441406 L 1143.019531 724.441406 L 1143.019531 631.429688 L 1282.539062 631.429688 L 1282.539062 584.921875 L 1422.058594 584.921875 L 1422.058594 538.410156 L 1236.03125 538.410156 L 1236.03125 584.921875 L 1189.519531 584.921875 L 1189.519531 538.410156 L 1143.019531 538.410156 L 1143.019531 491.910156 L 1096.511719 491.910156 L 1096.511719 538.410156 L 1050 538.410156 L 1050 584.921875 L 1003.488281 584.921875 L 1003.488281 631.429688 L 910.476562 631.429688 Z M 770.953125 491.910156 L 817.460938 491.910156 L 817.460938 538.410156 L 910.476562 538.410156 L 910.476562 584.921875 L 817.460938 584.921875 L 817.460938 538.410156 L 724.445312 538.410156 L 724.445312 491.910156 Z M 1329.050781 1050 L 1329.050781 1003.488281 L 1561.589844 1003.488281 L 1561.589844 956.980469 L 1608.101562 956.980469 L 1608.101562 1003.488281 L 1561.589844 1003.488281 L 1561.589844 1050 L 1375.558594 1050 L 1375.558594 1096.511719 L 1282.539062 1096.511719 L 1282.539062 1050 Z M 956.984375 956.980469 L 956.984375 1003.488281 L 1050 1003.488281 L 1050 1050 L 1096.511719 1050 L 1096.511719 1003.488281 L 1143.019531 1003.488281 L 1143.019531 956.980469 L 1236.03125 956.980469 L 1236.03125 1003.488281 L 1189.519531 1003.488281 L 1189.519531 1050 L 1096.511719 1050 L 1096.511719 1096.511719 L 1050 1096.511719 L 1050 1143.019531 L 1003.488281 1143.019531 L 1003.488281 1096.511719 L 956.984375 1096.511719 L 956.984375 1050 L 910.476562 1050 L 910.476562 956.980469 Z M 770.953125 1003.488281 L 770.953125 1050 L 724.445312 1050 L 724.445312 1143.019531 L 631.429688 1143.019531 L 631.429688 1096.511719 L 538.414062 1096.511719 L 538.414062 956.980469 L 445.398438 956.980469 L 445.398438 863.96875 L 398.890625 863.96875 L 398.890625 817.460938 L 352.382812 817.460938 L 352.382812 677.941406 L 445.398438 677.941406 L 445.398438 724.441406 L 398.890625 724.441406 L 398.890625 817.460938 L 491.90625 817.460938 L 491.90625 863.96875 L 538.414062 863.96875 L 538.414062 956.980469 L 584.921875 956.980469 L 584.921875 1003.488281 Z M 1096.511719 305.871094 L 1096.511719 398.890625 L 1050 398.890625 L 1050 305.871094 L 956.984375 305.871094 L 956.984375 259.359375 L 1050 259.359375 L 1050 305.871094 L 1096.511719 305.871094 "/>
<path fill-rule="evenodd" fill="rgb(21.556091%, 16.088867%, 10.984802%)" fill-opacity="1" d="M 910.476562 1515.078125 L 956.984375 1515.078125 L 956.984375 1468.570312 L 910.476562 1468.570312 Z M 910.476562 1840.628906 L 910.476562 1887.140625 L 956.984375 1887.140625 L 956.984375 1840.628906 Z M 863.96875 1794.128906 L 863.96875 1840.628906 L 910.476562 1840.628906 L 910.476562 1794.128906 Z M 817.460938 1050 L 817.460938 956.980469 L 910.476562 956.980469 L 910.476562 1003.488281 L 863.96875 1003.488281 L 863.96875 1096.511719 L 910.476562 1096.511719 L 910.476562 1143.019531 L 1003.488281 1143.019531 L 1003.488281 1189.519531 L 1050 1189.519531 L 1050 1236.03125 L 1003.488281 1236.03125 L 1003.488281 1189.519531 L 956.984375 1189.519531 L 956.984375 1329.050781 L 910.476562 1329.050781 L 910.476562 1189.519531 L 863.96875 1189.519531 L 863.96875 1143.019531 L 817.460938 1143.019531 L 817.460938 1096.511719 L 770.953125 1096.511719 L 770.953125 1050 Z M 770.953125 1887.140625 L 770.953125 1933.648438 L 724.445312 1933.648438 L 724.445312 1887.140625 Z M 1096.511719 1747.621094 L 1096.511719 1794.128906 L 1050 1794.128906 L 1050 1933.648438 L 1003.488281 1933.648438 L 1003.488281 1887.140625 L 956.984375 1887.140625 L 956.984375 1933.648438 L 910.476562 1933.648438 L 910.476562 1887.140625 L 863.96875 1887.140625 L 863.96875 1933.648438 L 817.460938 1933.648438 L 817.460938 1887.140625 L 863.96875 1887.140625 L 863.96875 1840.628906 L 817.460938 1840.628906 L 817.460938 1794.128906 L 863.96875 1794.128906 L 863.96875 1747.621094 L 910.476562 1747.621094 L 910.476562 1515.078125 L 863.96875 1515.078125 L 863.96875 1422.058594 L 956.984375 1422.058594 L 956.984375 1375.558594 L 1003.488281 1375.558594 L 1003.488281 1422.058594 L 956.984375 1422.058594 L 956.984375 1468.570312 L 1003.488281 1468.570312 L 1003.488281 1561.589844 L 1050 1561.589844 L 1050 1608.089844 L 1003.488281 1608.089844 L 1003.488281 1654.601562 L 1050 1654.601562 L 1050 1747.621094 L 1096.511719 1747.621094 "/>
<path fill-rule="evenodd" fill="rgb(18.821716%, 49.414062%, 25.097656%)" fill-opacity="1" d="M 1143.019531 166.351562 L 1143.019531 212.859375 L 1050 212.859375 L 1050 166.351562 Z M 817.460938 212.859375 L 817.460938 259.359375 L 677.9375 259.359375 L 677.9375 212.859375 Z M 1003.488281 212.859375 L 956.984375 212.859375 L 956.984375 259.359375 L 910.476562 259.359375 L 910.476562 305.871094 L 956.984375 305.871094 L 956.984375 259.359375 L 1003.488281 259.359375 Z M 1143.019531 352.378906 L 1096.511719 352.378906 L 1096.511719 445.398438 L 1143.019531 445.398438 L 1143.019531 538.410156 L 1189.519531 538.410156 L 1189.519531 398.890625 L 1143.019531 398.890625 Z M 1096.511719 259.359375 L 1096.511719 305.871094 L 1050 305.871094 L 1050 352.378906 L 1003.488281 352.378906 L 1003.488281 305.871094 L 1050 305.871094 L 1050 259.359375 Z M 1003.488281 584.921875 L 1003.488281 538.410156 L 1050 538.410156 L 1050 584.921875 L 1003.488281 584.921875 L 1003.488281 631.429688 L 956.984375 631.429688 L 956.984375 584.921875 Z M 817.460938 538.410156 L 817.460938 584.921875 L 910.476562 584.921875 L 910.476562 631.429688 L 817.460938 631.429688 L 817.460938 584.921875 L 770.953125 584.921875 L 770.953125 538.410156 Z M 631.429688 352.378906 L 584.921875 352.378906 L 584.921875 398.890625 L 538.414062 398.890625 L 538.414062 491.910156 L 491.90625 491.910156 L 491.90625 538.410156 L 398.890625 538.410156 L 398.890625 584.921875 L 491.90625 584.921875 L 491.90625 631.429688 L 584.921875 631.429688 L 584.921875 584.921875 L 631.429688 584.921875 L 631.429688 538.410156 L 724.445312 538.410156 L 724.445312 491.910156 L 817.460938 491.910156 L 817.460938 445.398438 L 677.9375 445.398438 L 677.9375 491.910156 L 631.429688 491.910156 Z M 1701.109375 817.460938 L 1701.109375 863.96875 L 1654.601562 863.96875 L 1654.601562 817.460938 Z M 1701.109375 677.941406 L 1701.109375 724.441406 L 1654.601562 724.441406 L 1654.601562 677.941406 Z M 1747.621094 910.480469 L 1747.621094 956.980469 L 1701.109375 956.980469 L 1701.109375 910.480469 Z M 1515.078125 538.410156 L 1515.078125 491.910156 L 1608.101562 491.910156 L 1608.101562 538.410156 L 1654.601562 538.410156 L 1654.601562 631.429688 L 1608.101562 631.429688 L 1608.101562 584.921875 L 1561.589844 584.921875 L 1561.589844 538.410156 L 1515.078125 538.410156 L 1515.078125 584.921875 L 1422.058594 584.921875 L 1422.058594 538.410156 Z M 1654.601562 956.980469 L 1654.601562 1003.488281 L 1608.101562 1003.488281 L 1608.101562 956.980469 Z M 910.476562 677.941406 L 910.476562 724.441406 L 863.96875 724.441406 L 863.96875 677.941406 Z M 1096.511719 677.941406 L 1096.511719 724.441406 L 1003.488281 724.441406 L 1003.488281 677.941406 Z M 1189.519531 677.941406 L 1189.519531 724.441406 L 1143.019531 724.441406 L 1143.019531 677.941406 Z M 491.90625 677.941406 L 491.90625 724.441406 L 445.398438 724.441406 L 445.398438 677.941406 L 398.890625 677.941406 L 398.890625 631.429688 L 445.398438 631.429688 L 445.398438 677.941406 Z M 631.429688 817.460938 L 631.429688 863.96875 L 584.921875 863.96875 L 584.921875 817.460938 Z M 445.398438 863.96875 L 445.398438 910.480469 L 398.890625 910.480469 L 398.890625 770.949219 L 445.398438 770.949219 L 445.398438 817.460938 L 352.382812 817.460938 L 352.382812 863.96875 Z M 1189.519531 863.96875 L 1189.519531 910.480469 L 1143.019531 910.480469 L 1143.019531 863.96875 Z M 956.984375 910.480469 L 956.984375 956.980469 L 910.476562 956.980469 L 910.476562 910.480469 Z M 770.953125 956.980469 L 817.460938 956.980469 L 817.460938 1050 L 770.953125 1050 L 770.953125 1096.511719 L 724.445312 1096.511719 L 724.445312 1050 L 770.953125 1050 L 770.953125 1003.488281 L 724.445312 1003.488281 L 724.445312 956.980469 Z M 584.921875 910.480469 L 584.921875 956.980469 L 631.429688 956.980469 L 631.429688 1003.488281 L 584.921875 1003.488281 L 584.921875 956.980469 L 538.414062 956.980469 L 538.414062 910.480469 Z M 1096.511719 1096.511719 L 1096.511719 1143.019531 L 1050 1143.019531 L 1050 1096.511719 Z M 1282.539062 1003.488281 L 1236.03125 1003.488281 L 1236.03125 1050 L 1282.539062 1050 Z M 1329.050781 1096.511719 L 1329.050781 1143.019531 L 1282.539062 1143.019531 L 1282.539062 1096.511719 L 1236.03125 1096.511719 L 1236.03125 1050 L 1189.519531 1050 L 1189.519531 1003.488281 L 1236.03125 1003.488281 L 1236.03125 956.980469 L 1282.539062 956.980469 L 1282.539062 1003.488281 L 1329.050781 1003.488281 L 1329.050781 1050 L 1282.539062 1050 L 1282.539062 1096.511719 Z M 1422.058594 1050 L 1422.058594 1096.511719 L 1375.558594 1096.511719 L 1375.558594 1050 Z M 1515.078125 1050 L 1515.078125 1143.019531 L 1468.570312 1143.019531 L 1468.570312 1050 Z M 1468.570312 305.871094 L 1468.570312 352.378906 L 1375.558594 352.378906 L 1375.558594 305.871094 L 1329.050781 305.871094 L 1329.050781 259.359375 L 1282.539062 259.359375 L 1282.539062 212.859375 L 1236.03125 212.859375 L 1236.03125 166.351562 L 1282.539062 166.351562 L 1282.539062 212.859375 L 1375.558594 212.859375 L 1375.558594 259.359375 L 1422.058594 259.359375 L 1422.058594 305.871094 L 1468.570312 305.871094 "/>
<path fill-rule="evenodd" fill="rgb(39.598083%, 66.209412%, 32.151794%)" fill-opacity="1" d="M 1143.019531 863.96875 L 1189.519531 863.96875 L 1189.519531 910.480469 L 1143.019531 910.480469 Z M 631.429688 817.460938 L 631.429688 863.96875 L 584.921875 863.96875 L 584.921875 817.460938 Z M 1654.601562 863.96875 L 1654.601562 817.460938 L 1747.621094 817.460938 L 1747.621094 724.441406 L 1654.601562 724.441406 L 1654.601562 631.429688 L 1608.101562 631.429688 L 1608.101562 584.921875 L 1561.589844 584.921875 L 1561.589844 538.410156 L 1236.03125 538.410156 L 1236.03125 584.921875 L 1189.519531 584.921875 L 1189.519531 398.890625 L 1143.019531 398.890625 L 1143.019531 352.378906 L 1096.511719 352.378906 L 1096.511719 259.359375 L 1003.488281 259.359375 L 1003.488281 212.859375 L 1143.019531 212.859375 L 1143.019531 166.351562 L 1236.03125 166.351562 L 1236.03125 212.859375 L 1282.539062 212.859375 L 1282.539062 259.359375 L 1329.050781 259.359375 L 1329.050781 305.871094 L 1375.558594 305.871094 L 1375.558594 352.378906 L 1468.570312 352.378906 L 1468.570312 398.890625 L 1515.078125 398.890625 L 1515.078125 584.921875 L 1282.539062 584.921875 L 1282.539062 631.429688 L 1143.019531 631.429688 L 1143.019531 677.941406 L 1189.519531 677.941406 L 1189.519531 724.441406 L 956.984375 724.441406 L 956.984375 770.949219 L 910.476562 770.949219 L 910.476562 724.441406 L 863.96875 724.441406 L 863.96875 677.941406 L 910.476562 677.941406 L 910.476562 538.410156 L 817.460938 538.410156 L 817.460938 445.398438 L 677.9375 445.398438 L 677.9375 491.910156 L 631.429688 491.910156 L 631.429688 305.871094 L 677.9375 305.871094 L 677.9375 259.359375 L 910.476562 259.359375 L 910.476562 305.871094 L 1003.488281 305.871094 L 1003.488281 352.378906 L 1050 352.378906 L 1050 398.890625 L 1096.511719 398.890625 L 1096.511719 445.398438 L 1143.019531 445.398438 L 1143.019531 491.910156 L 1096.511719 491.910156 L 1096.511719 538.410156 L 1003.488281 538.410156 L 1003.488281 584.921875 L 956.984375 584.921875 L 956.984375 631.429688 L 817.460938 631.429688 L 817.460938 584.921875 L 770.953125 584.921875 L 770.953125 538.410156 L 631.429688 538.410156 L 631.429688 584.921875 L 584.921875 584.921875 L 584.921875 631.429688 L 491.90625 631.429688 L 491.90625 584.921875 L 445.398438 584.921875 L 445.398438 677.941406 L 491.90625 677.941406 L 491.90625 724.441406 L 398.890625 724.441406 L 398.890625 770.949219 L 445.398438 770.949219 L 445.398438 817.460938 L 491.90625 817.460938 L 491.90625 863.96875 L 538.414062 863.96875 L 538.414062 910.480469 L 584.921875 910.480469 L 584.921875 956.980469 L 631.429688 956.980469 L 631.429688 1003.488281 L 724.445312 1003.488281 L 724.445312 956.980469 L 910.476562 956.980469 L 910.476562 910.480469 L 956.984375 910.480469 L 956.984375 1003.488281 L 1050 1003.488281 L 1050 1050 L 1096.511719 1050 L 1096.511719 1003.488281 L 1143.019531 1003.488281 L 1143.019531 956.980469 L 1282.539062 956.980469 L 1282.539062 1003.488281 L 1236.03125 1003.488281 L 1236.03125 1050 L 1282.539062 1050 L 1282.539062 1003.488281 L 1561.589844 1003.488281 L 1561.589844 956.980469 L 1701.109375 956.980469 L 1701.109375 863.96875 L 1654.601562 863.96875 "/>
</svg>
